<?xml version="1.0" standalone="no"?>
<!DOCTYPE svg PUBLIC "-//W3C//DTD SVG 20010904//EN"
 "http://www.w3.org/TR/2001/REC-SVG-20010904/DTD/svg10.dtd">
<svg version="1.0" xmlns="http://www.w3.org/2000/svg"
 width="670.000000pt" height="670.000000pt" viewBox="0 0 670.000000 670.000000"
 preserveAspectRatio="xMidYMid meet">
<metadata>
Created by potrace 1.14, written by Peter Selinger 2001-2017
</metadata>
<g transform="translate(0.000000,670.000000) scale(0.100000,-0.100000)"
fill="#000000" stroke="none">
<path d="M3187 6685 c-32 -7 -60 -13 -62 -14 -3 -1 -10 -3 -17 -5 -98 -31
-153 -57 -286 -135 l-73 -42 2 -312 c1 -309 1 -313 27 -393 63 -190 194 -326
376 -390 65 -23 104 -29 201 -28 107 1 132 5 206 33 100 38 193 106 260 193
37 47 58 83 89 149 4 8 15 49 24 90 13 60 16 128 13 369 l-2 295 -22 10 c-13
5 -23 13 -23 17 0 5 -5 8 -11 8 -6 0 -24 9 -40 21 -16 11 -29 17 -29 13 0 -4
-8 0 -17 9 -25 22 -159 82 -208 93 -151 35 -297 41 -408 19z"/>
<path d="M1470 5719 c-36 -22 -74 -44 -85 -49 -11 -6 -27 -14 -35 -20 -28 -18
-203 -120 -206 -120 -2 0 -38 -21 -81 -46 -43 -25 -107 -62 -143 -82 -36 -19
-67 -38 -70 -41 -3 -3 -23 -15 -45 -26 -46 -23 -42 -20 -120 -81 -145 -114
-253 -277 -308 -465 -21 -74 -21 -77 -24 -1414 -2 -951 1 -1353 9 -1385 50
-207 131 -357 253 -473 73 -70 138 -114 310 -213 94 -53 229 -131 300 -172
139 -79 208 -119 240 -136 11 -6 27 -16 35 -23 8 -6 22 -13 30 -15 13 -3 15
269 16 2400 0 1321 -2 2402 -5 2401 -4 0 -35 -18 -71 -40z"/>
<path d="M5150 3356 c0 -1323 3 -2406 6 -2406 3 0 18 8 32 18 15 10 94 56 175
103 192 109 206 117 245 141 17 11 32 17 32 13 0 -3 10 3 22 15 12 11 25 20
29 20 4 0 36 17 70 39 35 21 85 49 111 63 102 54 238 169 286 240 8 13 20 28
26 33 33 31 120 216 132 280 2 11 10 52 17 92 11 57 13 321 12 1370 -1 714 -5
1310 -8 1326 -4 15 -9 37 -11 50 -10 48 -15 64 -36 122 -66 179 -216 353 -393
458 -53 31 -101 57 -107 57 -5 0 -10 5 -10 10 0 6 -4 10 -9 10 -9 0 -106 53
-161 88 -14 9 -27 17 -30 17 -5 0 -132 73 -177 101 -21 13 -44 26 -130 75 -21
12 -57 32 -80 46 l-43 25 0 -2406z"/>
<path d="M3245 4673 c-138 -33 -259 -100 -334 -187 -15 -16 -34 -38 -43 -48
-10 -10 -18 -21 -18 -25 0 -3 -6 -14 -14 -22 -14 -17 -59 -126 -73 -176 -4
-17 -9 -922 -10 -2013 -3 -1886 -2 -1983 14 -1989 10 -4 34 -16 53 -28 198
-122 341 -168 530 -168 63 -1 178 11 190 18 4 2 21 7 37 10 49 8 188 71 285
128 l88 52 0 1966 c0 1652 -2 1974 -14 2013 -8 25 -12 46 -10 46 8 0 -48 116
-79 164 -68 107 -194 200 -326 243 -45 14 -236 25 -276 16z"/>
</g>
</svg>
