<svg width="300" height="443" viewBox="0 0 300 443" fill="none" xmlns="http://www.w3.org/2000/svg">
<path d="M180 10.4868V37C180 53.5685 166.569 67 150 67C133.431 67 120 53.5685 120 37V10.4868L128.096 5.83986C141.661 -1.94662 158.339 -1.94662 171.904 5.83986L180 10.4868Z" fill="white" fill-opacity="0.6"/>
<path d="M180 323.78L171.904 328.427C158.339 336.213 141.661 336.213 128.096 328.427L120 323.78V131C120 114.431 133.431 101 150 101C166.569 101 180 114.431 180 131V323.78Z" fill="white"/>
<path d="M59.8224 46.9277L22.0956 68.5834C8.4281 76.4287 0 90.9844 0 106.744V227.79C0 243.549 8.4281 258.104 22.0956 265.95L59.8224 287.605V46.9277Z" fill="white" fill-opacity="0.8"/>
<path d="M240 46.9277L277.727 68.5834C291.394 76.4287 299.822 90.9844 299.822 106.744V227.79C299.822 243.549 291.394 258.104 277.727 265.95L240 287.605V46.9277Z" fill="white" fill-opacity="0.4"/>
<path d="M29.7895 442.72C28.3495 442.72 27.1975 442.336 26.3335 441.568C25.4695 440.8 25.0375 439.744 25.0375 438.4V395.2C25.0375 393.856 25.4695 392.8 26.3335 392.032C27.1975 391.264 28.3495 390.88 29.7895 390.88C31.2295 390.88 32.3815 391.288 33.2455 392.104C34.1575 392.872 34.6135 393.904 34.6135 395.2V412.408H60.4615V395.2C60.4615 393.904 60.8935 392.872 61.7575 392.104C62.6695 391.288 63.8455 390.88 65.2855 390.88C66.7255 390.88 67.8775 391.264 68.7415 392.032C69.6055 392.8 70.0375 393.856 70.0375 395.2V438.4C70.0375 439.744 69.6055 440.8 68.7415 441.568C67.8775 442.336 66.7255 442.72 65.2855 442.72C63.8455 442.72 62.6695 442.336 61.7575 441.568C60.8935 440.752 60.4615 439.696 60.4615 438.4V419.824H34.6135V438.4C34.6135 439.696 34.1575 440.752 33.2455 441.568C32.3815 442.336 31.2295 442.72 29.7895 442.72Z" fill="white"/>
<path d="M86.4754 442.72C85.0354 442.72 83.8834 442.336 83.0194 441.568C82.1554 440.8 81.7234 439.744 81.7234 438.4V395.2C81.7234 393.856 82.1554 392.8 83.0194 392.032C83.8834 391.264 85.0354 390.88 86.4754 390.88C87.8674 390.88 89.0194 391.264 89.9314 392.032C90.8434 392.8 91.2994 393.856 91.2994 395.2V438.4C91.2994 439.744 90.8434 440.8 89.9314 441.568C89.0194 442.336 87.8674 442.72 86.4754 442.72Z" fill="white"/>
<path d="M126.701 442.72C123.341 442.72 120.557 441.568 118.349 439.264C116.141 436.912 114.197 433.048 112.517 427.672L102.509 395.848C102.317 395.272 102.221 394.672 102.221 394.048C102.221 391.936 103.709 390.88 106.685 390.88C108.173 390.88 109.301 391.168 110.069 391.744C110.885 392.32 111.485 393.256 111.869 394.552L121.805 426.952C122.717 429.88 123.557 431.992 124.325 433.288C125.093 434.584 125.885 435.232 126.701 435.232C127.517 435.232 128.309 434.584 129.077 433.288C129.845 431.992 130.685 429.88 131.597 426.952L141.533 394.552C141.917 393.256 142.493 392.32 143.261 391.744C144.077 391.168 145.229 390.88 146.717 390.88C149.693 390.88 151.181 391.936 151.181 394.048C151.181 394.672 151.085 395.272 150.893 395.848L140.885 427.672C139.205 433.048 137.261 436.912 135.053 439.264C132.845 441.568 130.061 442.72 126.701 442.72Z" fill="white"/>
<path d="M171.518 442C167.87 442 165.038 441.04 163.022 439.12C161.006 437.2 159.998 434.512 159.998 431.056V402.256C159.998 398.896 160.958 396.28 162.878 394.408C164.846 392.536 167.558 391.6 171.014 391.6H193.406C194.846 391.6 195.95 391.936 196.718 392.608C197.486 393.232 197.87 394.144 197.87 395.344C197.87 396.496 197.462 397.408 196.646 398.08C195.878 398.704 194.798 399.016 193.406 399.016H172.67C171.71 399.016 170.942 399.328 170.366 399.952C169.838 400.576 169.574 401.44 169.574 402.544V412.552H187.934C189.374 412.552 190.478 412.888 191.246 413.56C192.014 414.184 192.398 415.096 192.398 416.296C192.398 417.448 191.99 418.36 191.174 419.032C190.406 419.656 189.326 419.968 187.934 419.968H169.574V431.056C169.574 432.16 169.838 433.024 170.366 433.648C170.942 434.272 171.71 434.584 172.67 434.584H194.99C196.43 434.584 197.534 434.92 198.302 435.592C199.07 436.216 199.454 437.128 199.454 438.328C199.454 439.48 199.046 440.392 198.23 441.064C197.462 441.688 196.382 442 194.99 442H171.518Z" fill="white"/>
<path d="M215.178 442.72C213.738 442.72 212.586 442.336 211.722 441.568C210.858 440.8 210.426 439.744 210.426 438.4V395.2C210.426 393.856 210.858 392.8 211.722 392.032C212.586 391.264 213.738 390.88 215.178 390.88C216.57 390.88 217.722 391.264 218.634 392.032C219.546 392.8 220.002 393.856 220.002 395.2V438.4C220.002 439.744 219.546 440.8 218.634 441.568C217.722 442.336 216.57 442.72 215.178 442.72Z" fill="white"/>
<path d="M236.036 442.72C234.596 442.72 233.444 442.336 232.58 441.568C231.716 440.8 231.284 439.744 231.284 438.4V411.256C231.284 404.872 233.276 399.88 237.26 396.28C241.244 392.68 246.764 390.88 253.82 390.88C260.876 390.88 266.396 392.68 270.38 396.28C274.364 399.88 276.356 404.872 276.356 411.256V438.4C276.356 439.744 275.924 440.8 275.06 441.568C274.196 442.336 273.044 442.72 271.604 442.72C270.164 442.72 268.988 442.336 268.076 441.568C267.212 440.752 266.78 439.696 266.78 438.4V411.04C266.78 406.96 265.676 403.84 263.468 401.68C261.26 399.52 258.044 398.44 253.82 398.44C249.596 398.44 246.38 399.52 244.172 401.68C241.964 403.84 240.86 406.96 240.86 411.04V438.4C240.86 439.696 240.404 440.752 239.492 441.568C238.628 442.336 237.476 442.72 236.036 442.72Z" fill="white"/>
</svg>
