<svg width="300" height="335" viewBox="0 0 300 335" fill="none" xmlns="http://www.w3.org/2000/svg">
<path fill-rule="evenodd" clip-rule="evenodd" d="M180 10.4868V37C180 53.5685 166.569 67 150 67C133.431 67 120 53.5685 120 37V10.4868L128.096 5.83986C141.661 -1.94662 158.339 -1.94662 171.904 5.83986L180 10.4868Z" fill="#FF5400"/>
<path fill-rule="evenodd" clip-rule="evenodd" d="M180 323.78L171.904 328.427C158.339 336.213 141.661 336.213 128.096 328.427L120 323.78V131C120 114.431 133.431 101 150 101C166.569 101 180 114.431 180 131V323.78Z" fill="#FFA801"/>
<path fill-rule="evenodd" clip-rule="evenodd" d="M59.8224 46.9277L22.0956 68.5834C8.4281 76.4287 0 90.9845 0 106.744V227.79C0 243.549 8.4281 258.104 22.0956 265.95L59.8224 287.605V46.9277Z" fill="#FF7500"/>
<path fill-rule="evenodd" clip-rule="evenodd" d="M240 46.9277L277.727 68.5834C291.394 76.4287 299.822 90.9845 299.822 106.744V227.79C299.822 243.549 291.394 258.104 277.727 265.95L240 287.605V46.9277Z" fill="#FFD201"/>
</svg>
