<svg width="436" height="436" viewBox="0 0 436 436" fill="none" xmlns="http://www.w3.org/2000/svg">
<path d="M218 0L240.787 1.19423L263.325 4.76382L285.366 10.6697L306.669 18.8471L327 29.2065L346.137 41.6343L363.87 55.9944L380.006 72.1295L394.366 89.8628L406.794 109L417.153 129.331L425.33 150.634L431.236 172.675L434.806 195.213L436 218L434.806 240.787L431.236 263.325L425.33 285.366L417.153 306.669L406.794 327L394.366 346.137L380.006 363.87L363.87 380.006L346.137 394.366L327 406.794L306.669 417.153L285.366 425.33L263.325 431.236L240.787 434.806L218 436L195.213 434.806L172.675 431.236L150.634 425.33L129.331 417.153L109 406.794L89.8628 394.366L72.1295 380.006L55.9944 363.87L41.6343 346.137L29.2065 327L18.8471 306.669L10.6697 285.366L4.76382 263.325L1.19423 240.787L0 218L1.19423 195.213L4.76382 172.675L10.6697 150.634L18.8471 129.331L29.2065 109L41.6343 89.8628L55.9944 72.1295L72.1295 55.9944L89.8628 41.6343L109 29.2065L129.331 18.8471L150.634 10.6697L172.675 4.76382L195.213 1.19423L218 0Z" fill="white"/>
<g filter="url(#filter0_d_786_212)">
<path fill-rule="evenodd" clip-rule="evenodd" d="M248 61.4868V88C248 104.569 234.569 118 218 118C201.431 118 188 104.569 188 88V61.4868L196.096 56.8399C209.661 49.0534 226.339 49.0534 239.904 56.8399L248 61.4868Z" fill="#D74F24"/>
<path fill-rule="evenodd" clip-rule="evenodd" d="M248 374.78L239.904 379.427C226.339 387.213 209.661 387.213 196.096 379.427L188 374.78V182C188 165.431 201.431 152 218 152C234.569 152 248 165.431 248 182V374.78Z" fill="#FDB833"/>
<path fill-rule="evenodd" clip-rule="evenodd" d="M127.822 97.9277L90.0956 119.583C76.4281 127.429 68 141.984 68 157.744V278.79C68 294.549 76.4281 309.104 90.0956 316.95L127.822 338.605V97.9277Z" fill="#FD8833"/>
<path fill-rule="evenodd" clip-rule="evenodd" d="M308 97.9277L345.727 119.583C359.394 127.429 367.822 141.984 367.822 157.744V278.79C367.822 294.549 359.394 309.104 345.727 316.95L308 338.605V97.9277Z" fill="#FFD07B"/>
</g>
<defs>
<filter id="filter0_d_786_212" x="64" y="51" width="307.822" height="342.266" filterUnits="userSpaceOnUse" color-interpolation-filters="sRGB">
<feFlood flood-opacity="0" result="BackgroundImageFix"/>
<feColorMatrix in="SourceAlpha" type="matrix" values="0 0 0 0 0 0 0 0 0 0 0 0 0 0 0 0 0 0 127 0" result="hardAlpha"/>
<feOffset dy="4"/>
<feGaussianBlur stdDeviation="2"/>
<feComposite in2="hardAlpha" operator="out"/>
<feColorMatrix type="matrix" values="0 0 0 0 0 0 0 0 0 0 0 0 0 0 0 0 0 0 0.25 0"/>
<feBlend mode="normal" in2="BackgroundImageFix" result="effect1_dropShadow_786_212"/>
<feBlend mode="normal" in="SourceGraphic" in2="effect1_dropShadow_786_212" result="shape"/>
</filter>
</defs>
</svg>
